PathFileType	4	(X/Y/Z)	/Users/mathieubourgeois/Desktop/Analyse/Traitement/Sujet_03/Transformed_Static_Sujet_03_Tpose.trc
DataRate	CameraRate	NumFrames	NumMarkers	Units	OrigDataRate	OrigDataStartFrame	OrigNumFrames
120.000000	120.000000	4	36	mm	120.000000	213	244
Frame#	Time	RFHD			LFHD			RBHD			LBHD			C7			CLAV			RSHO			LSHO			STRN			T10			RBWT			LBWT			RFWT			LFWT			RKNI			LKNI			RKNE			LKNE			LANI			RANI			LANE			RANE			LTOE			RTOE			LHEE			RHEE			RHUM			LHUM			RRAD			LRAD			RWRA			RWRB			LWRA			LWRB			RCAR			LCAR			
		X1	Y1	Z1	X2	Y2	Z2	X3	Y3	Z3	X4	Y4	Z4	X5	Y5	Z5	X6	Y6	Z6	X7	Y7	Z7	X8	Y8	Z8	X9	Y9	Z9	X10	Y10	Z10	X11	Y11	Z11	X12	Y12	Z12	X13	Y13	Z13	X14	Y14	Z14	X15	Y15	Z15	X16	Y16	Z16	X17	Y17	Z17	X18	Y18	Z18	X19	Y19	Z19	X20	Y20	Z20	X21	Y21	Z21	X22	Y22	Z22	X23	Y23	Z23	X24	Y24	Z24	X25	Y25	Z25	X26	Y26	Z26	X27	Y27	Z27	X28	Y28	Z28	X29	Y29	Z29	X30	Y30	Z30	X31	Y31	Z31	X32	Y32	Z32	X33	Y33	Z33	X34	Y34	Z34	X35	Y35	Z35	X36	Y36	Z36	

214	1.775	-729.4061889648438	1771.743774414062	309.8918762207029	-574.171142578125	1767.7587890625	302.1730346679686	-736.0382080078125	1733.79931640625	181.6313323974607	-588.1510620117188	1733.099365234375	157.1859741210936	-650.1439208984375	1575.123901367188	143.444122314453	-646.5601806640625	1504.7060546875	276.9000854492186	-802.922607421875	1588.942138671875	169.3906860351561	-495.6454162597656	1593.5126953125	149.5834197998045	-643.9173583984375	1337.140014648438	322.6451110839843	-647.508056640625	1333.058227539062	103.3615417480467	-718.2064208984375	1091.122314453125	129.267623901367	-598.3985595703125	1089.9921875	134.5347595214842	-789.4820556640625	1054.660522460938	291.2629394531248	-536.4247436523438	1037.18798828125	299.283721923828	-730.083984375	478.5671997070312	170.0032958984374	-590.3353271484375	480.1078796386719	158.3650054931639	-839.7716064453125	533.2880859375	175.2651367187499	-486.2393493652344	525.049072265625	168.4188537597655	-585.9254760742188	95.01734924316408	139.8706970214843	-729.8180541992188	98.0845413208008	160.1329345703124	-496.3877563476562	75.18090820312501	120.1412658691406	-816.46923828125	82.38436126708986	131.0502929687499	-522.123046875	31.79735565185549	327.0106506347656	-797.5361938476562	32.39592742919924	341.7789306640624	-544.1160278320312	38.97713088989259	61.56828308105462	-766.7857666015625	39.4282569885254	74.0228271484374	-1091.478637695312	1494.741088867188	219.3019104003904	-198.6884765625	1505.392578125	224.2770385742186	-1106.003540039062	1527.750366210938	149.6109313964841	-192.4881744384766	1537.498168945312	151.3815917968749	-1360.60205078125	1616.749877929688	189.8301849365232	-1369.373291015625	1556.081665039062	140.577941894531	58.97037506103513	1599.029541015625	180.7232208251952	68.80513763427733	1527.874389648438	154.8248596191405	-1468.657592773438	1604.300659179688	135.3685760498044	168.6780395507812	1572.050415039062	164.1036987304687	
215	1.783333333333333	-729.4100952148438	1771.735961914062	309.9923706054685	-574.1736450195312	1767.759155273438	302.2580261230467	-736.0192260742188	1733.787719726562	181.7011871337889	-588.1343994140625	1733.11181640625	157.2584533691404	-650.134521484375	1575.11083984375	143.5268554687498	-646.5454711914062	1504.705444335938	276.9864196777342	-802.9093017578125	1588.923461914062	169.4689178466795	-495.6337280273438	1593.49609375	149.6699981689452	-643.9075927734375	1337.129272460938	322.734649658203	-647.4772338867188	1333.040283203125	103.4602584838865	-718.1678466796875	1091.106201171875	129.4058685302733	-598.3544311523438	1089.988159179688	134.6542510986327	-789.4680786132812	1054.638427734375	291.3511352539061	-536.3873901367188	1037.162475585938	299.403106689453	-730.0729370117188	478.5746459960938	170.0314483642577	-590.3357543945312	480.1015930175781	158.4244995117186	-839.7540283203125	533.2843017578125	175.2977600097655	-486.2275390625	525.041748046875	168.4893341064452	-585.9163208007812	95.02357482910158	139.8724060058593	-729.8189697265625	98.07864379882814	160.1324768066405	-496.3908386230469	75.19552612304689	120.1307525634765	-816.457763671875	82.39217376708986	131.0512695312499	-522.12939453125	31.78395652770998	327.0133056640624	-797.5372314453125	32.3975296020508	341.7846679687499	-544.1127319335938	38.98881530761719	61.5677528381347	-766.7802124023438	39.42404937744141	74.01350402832021	-1091.458740234375	1494.69775390625	219.3615722656248	-198.683837890625	1505.356567382812	224.3741302490233	-1105.98583984375	1527.67724609375	149.6892395019529	-192.4591674804688	1537.472778320312	151.4875183105468	-1360.598510742188	1616.694091796875	189.8933868408201	-1369.365234375	1556.029174804688	140.6481933593747	58.98509979248045	1598.991821289062	180.8423461914062	68.82984161376952	1527.848022460938	154.9268188476562	-1468.641479492188	1604.245727539062	135.4381103515622	168.6989593505859	1572.002319335938	164.2204132080078	
216	1.791666666666667	-729.4158935546875	1771.721923828125	310.045959472656	-574.1697998046875	1767.729614257812	302.3478698730467	-736.0026245117188	1733.785278320312	181.7717285156248	-588.1255493164062	1733.090087890625	157.3262329101561	-650.125244140625	1575.080078125	143.6204986572264	-646.5405883789062	1504.6982421875	277.0863037109373	-802.9052734375	1588.889038085938	169.5402984619139	-495.6203308105469	1593.484985351562	149.7655181884764	-643.8909912109375	1337.110473632812	322.811553955078	-647.4575805664062	1333.023193359375	103.5668792724608	-718.1255493164062	1091.110717773438	129.4925537109374	-598.3135986328125	1089.978881835938	134.7749786376952	-789.4525146484375	1054.62744140625	291.4564819335936	-536.348876953125	1037.150146484375	299.515167236328	-730.0535888671875	478.5658264160156	170.0621948242186	-590.3131103515625	480.1035461425781	158.4762725830077	-839.7398681640625	533.2785034179688	175.3277587890624	-486.2109985351562	525.0310668945312	168.5450439453124	-585.9195556640625	95.02003479003908	139.8724517822265	-729.8054809570312	98.07031250000001	160.1313934326171	-496.3920593261719	75.18319702148439	120.1384124755859	-816.4678344726562	82.3944778442383	131.0362854003905	-522.119384765625	31.79113197326662	327.0181579589843	-797.5419921875	32.39993286132815	341.7814331054686	-544.1093139648438	38.97665405273438	61.55926513671869	-766.7860107421875	39.42392730712891	74.01482391357412	-1091.450439453125	1494.651611328125	219.4391784667966	-198.6720123291016	1505.317016601562	224.4523162841796	-1105.959716796875	1527.634521484375	149.761520385742	-192.457015991211	1537.449096679688	151.5895538330077	-1360.593994140625	1616.628295898438	189.9662170410154	-1369.381713867188	1555.979248046875	140.7244873046872	59.01091003417967	1598.934936523438	180.9740142822265	68.85590362548827	1527.820556640625	155.0338897705077	-1468.627075195312	1604.17822265625	135.5327911376951	168.7001800537109	1571.962768554688	164.3369750976562	
217	1.8	-729.4124755859375	1771.70654296875	310.1419677734373	-574.1638793945312	1767.73388671875	302.4400634765623	-735.9910888671875	1733.75390625	181.8490142822264	-588.1323852539062	1733.07421875	157.3907775878904	-650.1204223632812	1575.068237304688	143.6997833251951	-646.527587890625	1504.671875	277.1849060058592	-802.8917236328125	1588.859497070312	169.6307525634764	-495.6051025390625	1593.462890625	149.8588104248045	-643.883544921875	1337.082397460938	322.896759033203	-647.4454956054688	1333.0048828125	103.6422348022459	-718.0878295898438	1091.107788085938	129.629669189453	-598.2984008789062	1089.970458984375	134.8995971679686	-789.4315185546875	1054.6103515625	291.5533142089842	-536.3280639648438	1037.12451171875	299.6324768066405	-730.0374755859375	478.5737915039062	170.1060180664061	-590.2992553710938	480.10302734375	158.5242614746093	-839.7286376953125	533.2754516601562	175.3511657714842	-486.2115783691406	525.0193481445312	168.6337890624999	-585.9147338867188	95.01427459716798	139.8792266845702	-729.8128662109375	98.07611083984376	160.1398620605468	-496.3911743164062	75.18167877197267	120.1398239135742	-816.470458984375	82.39746856689455	131.0493621826171	-522.1287841796875	31.78197860717776	327.0166320800781	-797.5433959960938	32.38849258422854	341.7873229980468	-544.1038208007812	38.97998809814454	61.56711578369134	-766.7766723632812	39.43389892578126	74.0190429687499	-1091.436279296875	1494.585205078125	219.4925842285154	-198.656005859375	1505.284057617188	224.5328979492186	-1105.95654296875	1527.56689453125	149.8420562744138	-192.4372711181641	1537.429077148438	151.6811370849608	-1360.578857421875	1616.557983398438	190.0529174804685	-1369.375610351562	1555.92529296875	140.7915191650388	59.02961349487303	1598.890625	181.1061401367187	68.86879730224608	1527.786376953125	155.1153869628905	-1468.622680664062	1604.099853515625	135.6213684082029	168.7120056152343	1571.925048828125	164.4414062499999	
